<svg xmlns="http://www.w3.org/2000/svg" xmlns:xlink="http://www.w3.org/1999/xlink" version="1.1" x="0px" y="0px" viewBox="0 0 100 100" enable-background="new 0 0 100 100" xml:space="preserve"><g><g><path d="M17.961,31.643L8.251,57.29c-3.785-5.55-2.469-13.798-1.976-15.748L17.961,31.643z M24.709,65.538    c-1.811-0.449-3.292-1.05-4.772-1.499c-4.115-1.65-7.077-3.3-8.724-4.05L34.09,44.542l12.509,24.896    c-6.255-0.3-12.509-1.199-18.927-2.999L24.709,65.538z M12.53,55.34l8.064-21.297c1.975,2.85,6.418,5.249,12.837,7.199    L12.53,55.34z M26.849,69.288c7.899,2.249,15.8,3.3,23.535,3.3c9.71,0,18.927-1.8,27.32-5.1L51.536,95.384L18.784,66.738    c1.481,0.6,3.127,1.2,4.772,1.649L26.849,69.288z M46.763,40.792c-7.241-0.9-20.243-3.6-23.699-8.699    c-0.658-1.05-0.987-2.1-0.658-3.3c0.987-1.799,3.456-3.449,6.912-4.949c5.431-2.1,12.508-3.299,20.079-3.299    c7.57,0,14.812,1.2,20.078,3.299c3.292,1.35,5.597,2.85,6.748,4.5c0.494,0.9,0.987,2.7,0.165,4.5    c-1.152,1.799-3.456,3.299-6.913,4.649c-5.266,2.1-12.508,3.3-20.078,3.3H46.763z M48.573,89.835l2.304-2.1L36.559,74.837    l-2.304,2.1L48.573,89.835z M37.217,42.142c6.419,1.5,12.015,1.95,12.344,1.95h0.165c3.785-0.15,7.241-0.45,10.368-0.75    L49.231,67.488L36.395,41.842L37.217,42.142z M62.728,45.292l18.269,17.248c-8.394,3.899-17.117,6.299-26.169,6.898    c-0.987,0-1.975,0.15-2.962,0.15L62.728,45.292z M67.007,73.938L52.853,86.686l2.304,2.1l14.154-12.748L67.007,73.938z     M64.538,42.592c6.254-1.2,10.697-3.3,13.166-5.999l3.292,21.597L64.538,42.592z M86.592,35.243l-6.748-2.7    c0.164-0.6,0.164-1.35,0.164-1.95L86.592,35.243z M92.681,40.192c2.14,5.399,1.317,10.349-2.304,15.148    c-1.975,2.399-4.114,4.05-5.596,5.1l-3.785-24.147l11.355,4.5L92.681,40.192z"></path></g></g></svg>