<svg xmlns="http://www.w3.org/2000/svg" xmlns:xlink="http://www.w3.org/1999/xlink" version="1.1" x="0px" y="0px" viewBox="0 0 90 90" enable-background="new 0 0 90 90" xml:space="preserve"><g><path fill="#000000" d="M86.5,12.5c-1.1-1.3-2.9-1.4-4.2-0.4c0,0-0.1,0.1-0.1,0.1c-1.2-0.8-2.8-0.8-4.1-0.1l-5.6-6.6   c-0.3-0.4-0.9-0.4-1.3-0.1l-3.3,2.8l5.2,6.1l0,0c0,0,0,0,0,0c0.8,0.9,0.6,2.3-0.3,3c-0.9,0.8-2.3,0.7-3-0.3c0,0,0,0,0,0l0,0   l-5.2-6.1l-2.9,2.5l5.2,6.1l0,0c0,0,0,0,0,0c0.8,0.9,0.6,2.3-0.3,3c-0.9,0.8-2.3,0.7-3-0.3c0,0,0,0,0,0l0,0l-5.2-6.1L55,19   c-0.4,0.3-0.4,0.9-0.1,1.3l5.6,6.6c-0.8,0.8-1.3,1.9-1.2,3L34.1,51.1c-1.3-0.6-2.9-0.4-4.1,0.6c-0.6,0.5-1,1.2-1.2,1.9   c-1.4-1.5-3.8-1.7-5.4-0.3c-0.4,0.4-0.8,0.8-1,1.3c-1.4-1.2-3.2-2-5.1-2.1c-2.4-0.2-4.8,0.5-6.6,2.1c-3.6,3-4.2,8.1-1.8,11.9   c-0.8,0.3-1.5,0.8-2.2,1.3c-3.8,3.2-4.3,9-1.1,12.8c1.6,1.9,3.8,3,6.2,3.2c2.4,0.2,4.8-0.5,6.6-2.1c0.7-0.6,1.2-1.2,1.7-2   c1.4,1.2,3.1,1.9,5,2.1c2.4,0.2,4.8-0.5,6.6-2.1c1.9-1.6,3-3.8,3.2-6.2c0.1-1.7-0.2-3.3-0.9-4.8c0.6-0.1,1.1-0.4,1.6-0.8   c1.6-1.3,1.8-3.7,0.6-5.3c0.7-0.1,1.5-0.4,2.1-0.9c1.4-1.2,1.8-3.1,1-4.7L64,36.2c0.4,0.2,0.9,0.4,1.4,0.4c1,0.1,2-0.2,2.9-0.9   c1.2-1,1.7-2.7,1.2-4.1L80.9,22c0.4,0.2,0.9,0.4,1.4,0.4c1,0.1,2-0.2,2.9-0.9c1.4-1.2,1.8-3.3,0.9-4.9   C87.4,15.6,87.5,13.7,86.5,12.5z M15.4,78c-1.8,1.5-4.7,1.3-6.2-0.5c-1.6-1.9-1.3-4.6,0.5-6.2c0.9-0.8,2-1.1,3.2-1   c1.2,0.1,2.2,0.7,3,1.6s1.1,2,1,3.2C16.8,76.2,16.3,77.2,15.4,78z M19.3,64.8c-1.8,1.5-4.7,1.3-6.2-0.5c-1.6-1.9-1.3-4.6,0.5-6.2   c0.9-0.8,2-1.1,3.2-1s2.2,0.7,3,1.6c0.8,0.9,1.1,2,1,3.2C20.7,63,20.2,64,19.3,64.8z M28.7,76c-1.8,1.5-4.7,1.3-6.2-0.5   c-0.8-0.9-1.1-2-1-3.2c0.1-1.2,0.7-2.2,1.6-3c0.9-0.8,2-1.1,3.2-1c1.2,0.1,2.2,0.7,3,1.6c0.8,0.9,1.1,2,1,3.2   C30.2,74.2,29.6,75.3,28.7,76z"></path></g></svg>